# Blender v2.80 (sub 75) OBJ File: ''
# www.blender.org
mtllib dino.mtl
o Model_Dino
v 0.100000 0.100000 -0.100000
v -0.100000 0.100000 -0.100000
v -0.100000 0.100000 0.100000
v 0.100000 0.100000 0.100000
v 0.100000 -0.100000 0.100000
v -0.100000 -0.100000 0.100000
v -0.100000 -0.100000 -0.100000
v 0.100000 -0.100000 -0.100000
v 12.000000 16.000000 0.000000
v 12.000000 21.000000 0.000000
v 12.000000 16.000000 5.000000
v 12.000000 21.000000 5.000000
v -5.000000 11.000000 0.000000
v -5.000000 11.000000 5.000000
v -5.000000 10.000000 5.000000
v -5.000000 10.000000 0.000000
v -3.000000 10.000000 5.000000
v 11.000000 21.000000 0.000000
v 11.000000 21.000000 5.000000
v 2.000000 3.000000 0.000000
v 2.000000 0.000000 0.000000
v 2.000000 0.000000 5.000000
v 2.000000 3.000000 5.000000
v 6.000000 14.000000 5.000000
v 10.000000 14.000000 5.000000
v 7.000000 15.000000 5.000000
v 3.000000 21.000000 0.000000
v 2.000000 21.000000 0.000000
v 2.000000 21.000000 5.000000
v 3.000000 21.000000 5.000000
v 1.000000 4.000000 5.000000
v 0.000000 4.000000 5.000000
v 0.000000 4.000000 0.000000
v 1.000000 4.000000 0.000000
v 0.000000 13.000000 5.000000
v 0.000000 13.000000 0.000000
v 0.000000 12.000000 0.000000
v 0.000000 12.000000 5.000000
v 0.000000 3.000000 5.000000
v 0.000000 3.000000 0.000000
v 11.000000 22.000000 5.000000
v 11.000000 22.000000 0.000000
v 8.000000 10.000000 5.000000
v 8.000000 10.000000 0.000000
v 8.000000 12.000000 0.000000
v 8.000000 12.000000 5.000000
v 10.000000 15.000000 0.000000
v 7.000000 15.000000 0.000000
v 10.000000 15.000000 5.000000
v 10.000000 14.000000 0.000000
v 3.000000 1.000000 5.000000
v 3.000000 5.000000 5.000000
v 6.000000 12.000000 0.000000
v 3.000000 1.000000 0.000000
v 7.000000 10.000000 5.000000
v 7.000000 10.000000 0.000000
v 4.000000 0.000000 0.000000
v 4.000000 0.000000 5.000000
v 7.000000 11.000000 5.000000
v 7.000000 11.000000 0.000000
v -1.000000 3.000000 5.000000
v -1.000000 2.000000 5.000000
v -1.000000 2.000000 0.000000
v -1.000000 3.000000 0.000000
v -1.000000 1.000000 5.000000
v -1.000000 0.000000 5.000000
v -1.000000 0.000000 0.000000
v -1.000000 1.000000 0.000000
v -2.000000 12.000000 5.000000
v -2.000000 12.000000 0.000000
v 7.000000 16.000000 5.000000
v 7.000000 16.000000 0.000000
v -2.000000 11.000000 5.000000
v 6.000000 21.000000 0.000000
v -3.000000 11.000000 5.000000
v -2.000000 2.000000 5.000000
v -3.000000 4.000000 5.000000
v 1.000000 14.000000 0.000000
v 1.000000 13.000000 0.000000
v 1.000000 13.000000 5.000000
v 1.000000 14.000000 5.000000
v 1.000000 3.000000 0.000000
v 1.000000 3.000000 5.000000
v 2.000000 14.000000 0.000000
v 2.000000 14.000000 5.000000
v 3.000000 5.000000 0.000000
v 6.000000 20.000000 5.000000
v 6.000000 21.000000 5.000000
v 6.000000 20.000000 0.000000
v 5.000000 20.000000 0.000000
v -4.000000 6.000000 0.000000
v -4.000000 4.000000 0.000000
v -4.000000 4.000000 5.000000
v -4.000000 6.000000 5.000000
v -3.000000 10.000000 0.000000
v -6.000000 7.000000 0.000000
v -3.000000 4.000000 0.000000
v -3.000000 11.000000 0.000000
v -3.000000 0.000000 5.000000
v -3.000000 0.000000 0.000000
v -2.000000 11.000000 0.000000
v -2.000000 2.000000 0.000000
v -2.000000 1.000000 5.000000
v -2.000000 1.000000 0.000000
v 6.000000 14.000000 0.000000
v 6.000000 12.000000 5.000000
v 6.000000 11.000000 5.000000
v 6.000000 11.000000 0.000000
v 6.000000 7.000000 0.000000
v 6.000000 7.000000 5.000000
v -8.000000 14.000000 5.000000
v -8.000000 14.000000 0.000000
v -8.000000 8.000000 5.000000
v -8.000000 8.000000 0.000000
v -7.000000 14.000000 0.000000
v -7.000000 14.000000 5.000000
v -7.000000 12.000000 5.000000
v -7.000000 12.000000 0.000000
v -6.000000 11.000000 5.000000
v -6.000000 11.000000 0.000000
v -7.000000 8.000000 5.000000
v -7.000000 8.000000 0.000000
v -7.000000 7.000000 0.000000
v -7.000000 7.000000 5.000000
v -6.000000 12.000000 0.000000
v -6.000000 12.000000 5.000000
v -6.000000 7.000000 5.000000
v -6.000000 6.000000 0.000000
v -6.000000 6.000000 5.000000
v 5.000000 6.000000 5.000000
v 4.000000 6.000000 5.000000
v 4.000000 6.000000 0.000000
v 5.000000 6.000000 0.000000
v 5.000000 7.000000 5.000000
v 5.000000 7.000000 0.000000
v 4.000000 5.000000 5.000000
v 4.000000 5.000000 0.000000
v 4.000000 1.000000 5.000000
v 4.000000 1.000000 0.000000
v 3.000000 22.000000 5.000000
v 3.000000 22.000000 0.000000
v 5.000000 21.000000 0.000000
v 5.000000 20.000000 5.000000
v 5.000000 21.000000 5.000000
vn 0.0000 1.0000 0.0000
vn 0.0000 0.0000 1.0000
vn -1.0000 0.0000 0.0000
vn 0.0000 -1.0000 0.0000
vn 1.0000 0.0000 0.0000
vn 0.0000 0.0000 -1.0000
usemtl None
s off
f 1//1 2//1 3//1
f 1//1 3//1 4//1
f 5//2 4//2 3//2
f 5//2 3//2 6//2
f 6//3 3//3 2//3
f 6//3 2//3 7//3
f 7//4 8//4 5//4
f 7//4 5//4 6//4
f 8//5 1//5 4//5
f 8//5 4//5 5//5
f 7//6 2//6 1//6
f 7//6 1//6 8//6
f 9//5 10//5 11//5
f 12//5 11//5 10//5
f 13//5 14//5 15//5
f 13//5 15//5 16//5
f 16//1 15//1 17//1
f 10//1 18//1 19//1
f 10//1 19//1 12//1
f 20//3 21//3 22//3
f 20//3 22//3 23//3
f 24//2 25//2 26//2
f 27//1 28//1 29//1
f 27//1 29//1 30//1
f 31//4 32//4 33//4
f 31//4 33//4 34//4
f 12//2 19//2 11//2
f 35//3 36//3 37//3
f 35//3 37//3 38//3
f 32//5 39//5 40//5
f 32//5 40//5 33//5
f 41//5 19//5 18//5
f 41//5 18//5 42//5
f 43//5 44//5 45//5
f 46//5 43//5 45//5
f 47//1 48//1 26//1
f 47//1 26//1 49//1
f 47//6 50//6 48//6
f 23//2 22//2 51//2
f 23//2 51//2 52//2
f 45//1 53//1 46//1
f 54//6 21//6 20//6
f 43//4 55//4 56//4
f 43//4 56//4 44//4
f 21//4 57//4 22//4
f 58//4 22//4 57//4
f 58//2 51//2 22//2
f 59//2 55//2 43//2
f 54//6 57//6 21//6
f 56//6 60//6 44//6
f 45//6 44//6 60//6
f 61//5 62//5 63//5
f 61//5 63//5 64//5
f 43//2 46//2 59//2
f 65//5 66//5 67//5
f 65//5 67//5 68//5
f 45//6 60//6 53//6
f 69//1 38//1 70//1
f 37//1 70//1 38//1
f 71//5 26//5 48//5
f 71//5 48//5 72//5
f 69//2 73//2 38//2
f 60//3 56//3 55//3
f 60//3 55//3 59//3
f 42//6 18//6 74//6
f 75//2 17//2 73//2
f 39//4 61//4 64//4
f 39//4 64//4 40//4
f 61//2 39//2 32//2
f 76//2 61//2 77//2
f 33//6 40//6 64//6
f 78//3 79//3 80//3
f 78//3 80//3 81//3
f 34//3 82//3 83//3
f 34//3 83//3 31//3
f 10//6 9//6 18//6
f 84//1 78//1 81//1
f 84//1 81//1 85//1
f 81//2 80//2 85//2
f 11//4 72//4 9//4
f 84//6 79//6 78//6
f 72//6 18//6 9//6
f 49//5 25//5 50//5
f 49//5 50//5 47//5
f 33//6 37//6 34//6
f 11//4 71//4 72//4
f 54//6 20//6 86//6
f 23//4 83//4 82//4
f 23//4 82//4 20//4
f 31//2 83//2 23//2
f 23//2 52//2 31//2
f 82//6 34//6 20//6
f 34//6 86//6 20//6
f 24//4 50//4 25//4
f 49//2 26//2 25//2
f 87//2 71//2 19//2
f 87//2 19//2 88//2
f 89//6 74//6 18//6
f 28//3 84//3 29//3
f 41//2 88//2 19//2
f 29//3 84//3 85//3
f 18//6 72//6 89//6
f 11//2 19//2 71//2
f 84//6 90//6 72//6
f 91//3 92//3 93//3
f 91//3 93//3 94//3
f 95//1 16//1 17//1
f 95//6 91//6 16//6
f 96//6 16//6 91//6
f 17//2 94//2 32//2
f 94//2 93//2 77//2
f 77//4 93//4 92//4
f 77//4 92//4 97//4
f 91//6 97//6 92//6
f 98//3 95//3 17//3
f 98//3 17//3 75//3
f 97//3 99//3 77//3
f 97//3 100//3 99//3
f 101//1 98//1 75//1
f 101//1 75//1 73//1
f 101//6 95//6 98//6
f 15//2 94//2 17//2
f 101//6 33//6 95//6
f 77//2 32//2 94//2
f 91//6 95//6 33//6
f 91//6 33//6 97//6
f 99//2 76//2 77//2
f 100//6 97//6 102//6
f 103//2 76//2 99//2
f 102//6 104//6 100//6
f 66//4 99//4 100//4
f 66//2 103//2 99//2
f 71//2 24//2 26//2
f 105//6 84//6 48//6
f 24//4 105//4 50//4
f 48//6 50//6 105//6
f 53//1 106//1 46//1
f 59//4 107//4 108//4
f 59//4 108//4 60//4
f 106//2 107//2 59//2
f 106//2 59//2 46//2
f 53//6 60//6 108//6
f 24//5 53//5 105//5
f 24//5 106//5 53//5
f 109//5 108//5 110//5
f 107//5 110//5 108//5
f 32//2 77//2 61//2
f 64//6 97//6 33//6
f 76//2 62//2 61//2
f 62//4 76//4 102//4
f 62//4 102//4 63//4
f 64//6 63//6 102//6
f 64//6 102//6 97//6
f 68//1 104//1 103//1
f 68//1 103//1 65//1
f 100//4 67//4 66//4
f 103//2 66//2 65//2
f 100//6 104//6 67//6
f 68//6 67//6 104//6
f 69//3 70//3 101//3
f 69//3 101//3 73//3
f 76//5 103//5 104//5
f 76//5 104//5 102//5
f 111//3 112//3 113//3
f 112//3 114//3 113//3
f 115//1 112//1 111//1
f 115//1 111//1 116//1
f 117//2 116//2 111//2
f 115//6 118//6 112//6
f 119//2 117//2 113//2
f 111//2 113//2 117//2
f 118//6 120//6 114//6
f 121//4 113//4 114//4
f 121//4 114//4 122//4
f 112//6 118//6 114//6
f 115//5 116//5 117//5
f 115//5 117//5 118//5
f 122//3 123//3 124//3
f 122//3 124//3 121//3
f 125//1 118//1 117//1
f 125//1 117//1 126//1
f 117//2 119//2 126//2
f 125//6 120//6 118//6
f 16//6 122//6 120//6
f 15//2 119//2 121//2
f 113//2 121//2 119//2
f 122//6 114//6 120//6
f 127//4 124//4 123//4
f 127//4 123//4 96//4
f 121//2 124//2 127//2
f 122//6 96//6 123//6
f 125//5 126//5 119//5
f 125//5 119//5 120//5
f 96//3 128//3 129//3
f 96//3 129//3 127//3
f 13//1 120//1 119//1
f 13//1 119//1 14//1
f 119//2 15//2 14//2
f 13//6 16//6 120//6
f 121//2 127//2 15//2
f 122//6 16//6 96//6
f 94//2 15//2 127//2
f 128//4 91//4 129//4
f 94//4 129//4 91//4
f 127//2 129//2 94//2
f 96//6 91//6 128//6
f 130//4 131//4 132//4
f 130//4 132//4 133//4
f 131//2 130//2 134//2
f 135//6 133//6 132//6
f 131//5 136//5 137//5
f 131//5 137//5 132//5
f 138//5 58//5 57//5
f 138//5 57//5 139//5
f 140//1 41//1 141//1
f 27//6 141//6 142//6
f 42//6 74//6 141//6
f 29//2 85//2 30//2
f 85//2 143//2 30//2
f 80//2 106//2 85//2
f 84//6 53//6 79//6
f 86//6 37//6 132//6
f 107//2 80//2 134//2
f 106//2 80//2 107//2
f 131//2 134//2 38//2
f 34//6 37//6 86//6
f 136//4 52//4 86//4
f 136//4 86//4 137//4
f 52//2 136//2 131//2
f 132//6 137//6 86//6
f 139//1 54//1 51//1
f 139//1 51//1 138//1
f 51//2 58//2 138//2
f 139//6 57//6 54//6
f 140//3 141//3 27//3
f 140//3 27//3 30//3
f 54//5 86//5 52//5
f 52//5 51//5 54//5
f 79//1 36//1 35//1
f 79//1 35//1 80//1
f 35//2 38//2 80//2
f 79//6 135//6 37//6
f 79//6 37//6 36//6
f 31//2 52//2 38//2
f 17//2 32//2 73//2
f 73//2 32//2 38//2
f 52//2 131//2 38//2
f 38//2 134//2 80//2
f 70//6 37//6 101//6
f 33//6 101//6 37//6
f 31//2 38//2 32//2
f 144//2 143//2 87//2
f 144//2 87//2 88//2
f 74//6 89//6 90//6
f 74//6 90//6 142//6
f 41//2 140//2 88//2
f 142//6 141//6 74//6
f 89//6 72//6 90//6
f 87//2 143//2 71//2
f 72//6 48//6 84//6
f 24//2 85//2 106//2
f 109//6 135//6 108//6
f 110//4 134//4 135//4
f 110//4 135//4 109//4
f 134//5 130//5 133//5
f 134//5 133//5 135//5
f 42//1 141//1 41//1
f 144//2 88//2 140//2
f 30//2 144//2 140//2
f 90//6 27//6 142//6
f 90//6 84//6 27//6
f 28//6 27//6 84//6
f 24//2 71//2 85//2
f 144//2 30//2 143//2
f 143//2 85//2 71//2
f 53//6 84//6 105//6
f 108//6 135//6 79//6
f 108//6 79//6 53//6
f 132//6 37//6 135//6
f 107//2 134//2 110//2
