# MagicaVoxel @ Ephtracy

# group
o 

# material
mtllib cactus.mtl
usemtl palette

# normals
vn -1 0 0
vn 1 0 0
vn 0 0 1
vn 0 0 -1
vn 0 -1 0
vn 0 1 0

# texcoords
vt 0.876953 0.5
vt 0.880859 0.5

# verts
v 0 2 -0.5
v 0 2 -1
v 0 2.1 -0.6
v 0 2.1 -0.7
v 0 2.2 -0.6
v 0 2.2 -0.7
v 0 2.3 -0.8
v 0 2.3 -0.9
v 0 2.4 -0.8
v 0 2.4 -0.9
v 0 2.6 -0.2
v 0 2.6 -0.5
v 0 2.7 -0.1
v 0 2.7 -0.2
v 0 2.7 -0.4
v 0 2.7 -0.5
v 0 2.7 -0.8
v 0 2.7 -0.9
v 0 2.8 0
v 0 2.8 -0.1
v 0 2.8 -0.4
v 0 2.8 -0.5
v 0 2.8 -0.8
v 0 2.8 -0.9
v 0 2.9 -0.2
v 0 2.9 -0.3
v 0 3 -0.2
v 0 3 -0.3
v 0 3 -0.5
v 0 3.1 0
v 0 3.1 -0.1
v 0 3.1 -0.6
v 0 3.1 -0.7
v 0 3.1 -1
v 0 3.1 -1.3
v 0 3.2 0
v 0 3.2 -0.1
v 0 3.2 -0.6
v 0 3.2 -0.7
v 0 3.2 -1
v 0 3.2 -1.1
v 0 3.2 -1.3
v 0 3.2 -1.4
v 0 3.3 -1
v 0 3.3 -1.1
v 0 3.3 -1.3
v 0 3.3 -1.4
v 0 3.3 -1.5
v 0 3.4 -0.2
v 0 3.4 -0.3
v 0 3.4 -0.8
v 0 3.4 -0.9
v 0 3.5 -0.2
v 0 3.5 -0.3
v 0 3.5 -0.8
v 0 3.5 -0.9
v 0 3.5 -1
v 0 3.5 -1.2
v 0 3.5 -1.3
v 0 3.6 0
v 0 3.6 -0.1
v 0 3.6 -0.2
v 0 3.6 -0.3
v 0 3.6 -1.2
v 0 3.6 -1.3
v 0 3.7 -0.1
v 0 3.7 -0.2
v 0 3.7 -0.6
v 0 3.7 -0.7
v 0 3.7 -1.4
v 0 3.7 -1.5
v 0 3.8 -0.6
v 0 3.8 -0.7
v 0 3.8 -1.4
v 0 3.8 -1.5
v 0 3.9 -1.3
v 0 3.9 -1.4
v 0 4 -0.8
v 0 4 -0.9
v 0 4 -1.3
v 0 4 -1.4
v 0 4.1 -0.8
v 0 4.1 -0.9
v 0 4.1 -1.2
v 0 4.1 -1.3
v 0 4.1 -1.4
v 0 4.1 -1.5
v 0 4.2 -1.3
v 0 4.2 -1.4
v 0 4.3 -0.6
v 0 4.3 -0.7
v 0 4.3 -0.9
v 0 4.3 -1
v 0 4.4 -0.5
v 0 4.4 -0.6
v 0 4.4 -0.7
v 0 4.4 -0.9
v 0 4.4 -1
v 0 4.5 -0.6
v 0 4.5 -0.9
v 0.2 2 -0.5
v 0.2 2 -0.6
v 0.2 2 -0.7
v 0.2 2 -1
v 0.2 2.1 -0.6
v 0.2 2.1 -0.7
v 0.2 2.3 -0.8
v 0.2 2.3 -0.9
v 0.2 2.4 -0.8
v 0.2 2.4 -0.9
v 0.2 2.6 -0.2
v 0.2 2.6 -0.5
v 0.2 2.6 -0.6
v 0.2 2.6 -0.7
v 0.2 2.7 -0.1
v 0.2 2.7 -0.2
v 0.2 2.7 -0.3
v 0.2 2.7 -0.4
v 0.2 2.7 -0.6
v 0.2 2.7 -0.7
v 0.2 2.8 0
v 0.2 2.8 -0.1
v 0.2 2.8 -0.3
v 0.2 2.8 -0.4
v 0.2 2.9 -0.1
v 0.2 2.9 -0.2
v 0.2 2.9 -0.8
v 0.2 2.9 -0.9
v 0.2 3 -0.1
v 0.2 3 -0.2
v 0.2 3 -0.3
v 0.2 3 -0.5
v 0.2 3 -0.8
v 0.2 3 -0.9
v 0.2 3.1 -1
v 0.2 3.1 -1.3
v 0.2 3.2 -0.6
v 0.2 3.2 -0.7
v 0.2 3.2 -1.1
v 0.2 3.2 -1.2
v 0.2 3.2 -1.3
v 0.2 3.2 -1.4
v 0.2 3.3 -0.1
v 0.2 3.3 -0.2
v 0.2 3.3 -0.6
v 0.2 3.3 -0.7
v 0.2 3.3 -1.1
v 0.2 3.3 -1.2
v 0.2 3.3 -1.3
v 0.2 3.3 -1.4
v 0.2 3.3 -1.5
v 0.2 3.4 -0.1
v 0.2 3.4 -0.2
v 0.2 3.4 -0.8
v 0.2 3.4 -0.9
v 0.2 3.5 -0.2
v 0.2 3.5 -0.3
v 0.2 3.5 -0.8
v 0.2 3.5 -0.9
v 0.2 3.5 -1
v 0.2 3.5 -1.2
v 0.2 3.5 -1.3
v 0.2 3.6 0
v 0.2 3.6 -0.1
v 0.2 3.6 -0.2
v 0.2 3.6 -0.3
v 0.2 3.6 -1.2
v 0.2 3.6 -1.3
v 0.2 3.7 -0.1
v 0.2 3.7 -0.2
v 0.2 3.7 -0.6
v 0.2 3.7 -0.7
v 0.2 3.8 -0.6
v 0.2 3.8 -0.7
v 0.2 3.8 -1.4
v 0.2 3.8 -1.5
v 0.2 3.9 -1.4
v 0.2 3.9 -1.5
v 0.2 4 -0.8
v 0.2 4 -0.9
v 0.2 4 -1.2
v 0.2 4 -1.3
v 0.2 4.1 -0.8
v 0.2 4.1 -0.9
v 0.2 4.1 -1.2
v 0.2 4.1 -1.3
v 0.2 4.1 -1.4
v 0.2 4.1 -1.5
v 0.2 4.2 -0.5
v 0.2 4.2 -0.6
v 0.2 4.2 -1.3
v 0.2 4.2 -1.4
v 0.2 4.3 -0.5
v 0.2 4.3 -0.6
v 0.2 4.4 -0.5
v 0.2 4.4 -0.6
v 0.2 4.4 -0.9
v 0.2 4.4 -1
v 0.2 4.5 -0.6
v 0.2 4.5 -0.9
v 0 2.8 0
v 0 3.1 0
v 0 3.2 0
v 0 3.6 0
v 0.1 3.1 0
v 0.1 3.2 0
v 0.2 2.8 0
v 0.2 3.6 0
v 0 2.7 -0.1
v 0 2.8 -0.1
v 0 3.6 -0.1
v 0 3.7 -0.1
v 0.2 2.7 -0.1
v 0.2 2.8 -0.1
v 0.2 3.6 -0.1
v 0.2 3.7 -0.1
v 0 2.6 -0.2
v 0 2.7 -0.2
v 0.2 2.6 -0.2
v 0.2 2.7 -0.2
v 0 2 -0.5
v 0 2.6 -0.5
v 0 3 -0.5
v 0 4.4 -0.5
v 0.1 4.2 -0.5
v 0.1 4.3 -0.5
v 0.2 2 -0.5
v 0.2 2.6 -0.5
v 0.2 3 -0.5
v 0.2 4.2 -0.5
v 0.2 4.3 -0.5
v 0.2 4.4 -0.5
v 0 4.4 -0.6
v 0 4.5 -0.6
v 0.2 4.4 -0.6
v 0.2 4.5 -0.6
v 0 3.5 -1.2
v 0 3.6 -1.2
v 0 4.1 -1.2
v 0.1 4 -1.2
v 0.1 4.1 -1.2
v 0.2 3.5 -1.2
v 0.2 3.6 -1.2
v 0.2 4 -1.2
v 0.2 4.1 -1.2
v 0 4.1 -1.3
v 0 4.2 -1.3
v 0.1 4.1 -1.3
v 0.2 4.1 -1.3
v 0.2 4.2 -1.3
v 0 3.6 -0.2
v 0 3.7 -0.2
v 0.1 3.6 -0.2
v 0.2 3.6 -0.2
v 0.2 3.7 -0.2
v 0 3 -0.3
v 0 3.4 -0.3
v 0 3.5 -0.3
v 0 3.6 -0.3
v 0.1 3.4 -0.3
v 0.1 3.5 -0.3
v 0.1 3.6 -0.3
v 0.2 3 -0.3
v 0.2 3.5 -0.3
v 0.2 3.6 -0.3
v 0 4.4 -0.9
v 0 4.5 -0.9
v 0.1 4.4 -0.9
v 0.2 4.4 -0.9
v 0.2 4.5 -0.9
v 0 2 -1
v 0 3.1 -1
v 0 3.5 -1
v 0 4.3 -1
v 0 4.4 -1
v 0.1 4.3 -1
v 0.1 4.4 -1
v 0.2 2 -1
v 0.2 3.1 -1
v 0.2 3.5 -1
v 0.2 4.4 -1
v 0 3.1 -1.3
v 0 3.2 -1.3
v 0.2 3.1 -1.3
v 0.2 3.2 -1.3
v 0 3.2 -1.4
v 0 3.3 -1.4
v 0 4.1 -1.4
v 0 4.2 -1.4
v 0.2 3.2 -1.4
v 0.2 3.3 -1.4
v 0.2 4.1 -1.4
v 0.2 4.2 -1.4
v 0 3.3 -1.5
v 0 3.7 -1.5
v 0 3.8 -1.5
v 0 4.1 -1.5
v 0.1 3.7 -1.5
v 0.1 3.8 -1.5
v 0.1 3.9 -1.5
v 0.2 3.3 -1.5
v 0.2 3.8 -1.5
v 0.2 3.9 -1.5
v 0.2 4.1 -1.5
v 0 2 -0.5
v 0.2 2 -0.5
v 0.1 2 -0.6
v 0.2 2 -0.6
v 0.1 2 -0.7
v 0.2 2 -0.7
v 0 2 -1
v 0.2 2 -1
v 0 2.6 -0.2
v 0.2 2.6 -0.2
v 0 2.6 -0.5
v 0.2 2.6 -0.5
v 0 2.7 -0.1
v 0.2 2.7 -0.1
v 0 2.7 -0.2
v 0.2 2.7 -0.2
v 0 2.8 0
v 0.2 2.8 0
v 0 2.8 -0.1
v 0.2 2.8 -0.1
v 0 3.1 -1
v 0.2 3.1 -1
v 0 3.1 -1.3
v 0.2 3.1 -1.3
v 0 3.2 -1.3
v 0.2 3.2 -1.3
v 0 3.2 -1.4
v 0.2 3.2 -1.4
v 0 3.3 -1.4
v 0.2 3.3 -1.4
v 0 3.3 -1.5
v 0.2 3.3 -1.5
v 0 3 -0.3
v 0.2 3 -0.3
v 0 3 -0.5
v 0.2 3 -0.5
v 0 3.5 -1
v 0.2 3.5 -1
v 0 3.5 -1.2
v 0.2 3.5 -1.2
v 0 3.6 0
v 0.2 3.6 0
v 0 3.6 -0.1
v 0.2 3.6 -0.1
v 0 3.6 -0.2
v 0.1 3.6 -0.2
v 0.2 3.6 -0.2
v 0 3.6 -0.3
v 0.1 3.6 -0.3
v 0.2 3.6 -0.3
v 0 3.7 -0.1
v 0.2 3.7 -0.1
v 0 3.7 -0.2
v 0.2 3.7 -0.2
v 0 4.1 -1.2
v 0.1 4.1 -1.2
v 0.2 4.1 -1.2
v 0 4.1 -1.3
v 0.1 4.1 -1.3
v 0.2 4.1 -1.3
v 0 4.1 -1.4
v 0.2 4.1 -1.4
v 0 4.1 -1.5
v 0.2 4.1 -1.5
v 0 4.2 -1.3
v 0.2 4.2 -1.3
v 0 4.2 -1.4
v 0.2 4.2 -1.4
v 0 4.4 -0.5
v 0.2 4.4 -0.5
v 0 4.4 -0.6
v 0.2 4.4 -0.6
v 0 4.4 -0.9
v 0.1 4.4 -0.9
v 0.2 4.4 -0.9
v 0 4.4 -1
v 0.1 4.4 -1
v 0.2 4.4 -1
v 0 4.5 -0.6
v 0.2 4.5 -0.6
v 0 4.5 -0.9
v 0.2 4.5 -0.9

# faces
f 3/1/1 2/1/1 1/1/1
f 4/1/1 2/1/1 3/1/1
f 5/1/1 3/1/1 1/1/1
f 5/2/1 4/2/1 3/2/1
f 6/1/1 2/1/1 4/1/1
f 6/2/1 4/2/1 5/2/1
f 7/1/1 6/1/1 5/1/1
f 7/1/1 2/1/1 6/1/1
f 8/1/1 2/1/1 7/1/1
f 9/1/1 7/1/1 5/1/1
f 9/2/1 8/2/1 7/2/1
f 10/1/1 2/1/1 8/1/1
f 10/2/1 8/2/1 9/2/1
f 12/1/1 5/1/1 1/1/1
f 12/1/1 9/1/1 5/1/1
f 12/1/1 10/1/1 9/1/1
f 14/1/1 12/1/1 11/1/1
f 15/1/1 12/1/1 14/1/1
f 16/1/1 10/1/1 12/1/1
f 16/1/1 12/1/1 15/1/1
f 17/1/1 10/1/1 16/1/1
f 18/1/1 2/1/1 10/1/1
f 18/1/1 10/1/1 17/1/1
f 20/1/1 15/1/1 14/1/1
f 20/1/1 14/1/1 13/1/1
f 21/2/1 16/2/1 15/2/1
f 21/1/1 15/1/1 20/1/1
f 22/1/1 17/1/1 16/1/1
f 22/2/1 16/2/1 21/2/1
f 23/2/1 18/2/1 17/2/1
f 23/1/1 17/1/1 22/1/1
f 24/1/1 2/1/1 18/1/1
f 24/2/1 18/2/1 23/2/1
f 25/1/1 21/1/1 20/1/1
f 25/1/1 23/1/1 22/1/1
f 25/1/1 24/1/1 23/1/1
f 25/1/1 22/1/1 21/1/1
f 25/1/1 20/1/1 19/1/1
f 26/1/1 24/1/1 25/1/1
f 27/1/1 25/1/1 19/1/1
f 27/2/1 26/2/1 25/2/1
f 28/1/1 24/1/1 26/1/1
f 28/2/1 26/2/1 27/2/1
f 29/1/1 24/1/1 28/1/1
f 30/1/1 27/1/1 19/1/1
f 30/1/1 28/1/1 27/1/1
f 31/1/1 28/1/1 30/1/1
f 32/1/1 24/1/1 29/1/1
f 33/1/1 24/1/1 32/1/1
f 34/1/1 2/1/1 24/1/1
f 34/1/1 24/1/1 33/1/1
f 36/2/1 31/2/1 30/2/1
f 37/1/1 28/1/1 31/1/1
f 37/2/1 31/2/1 36/2/1
f 38/2/1 33/2/1 32/2/1
f 38/1/1 32/1/1 29/1/1
f 39/1/1 35/1/1 34/1/1
f 39/2/1 33/2/1 38/2/1
f 39/1/1 34/1/1 33/1/1
f 40/1/1 35/1/1 39/1/1
f 41/1/1 35/1/1 40/1/1
f 42/1/1 35/1/1 41/1/1
f 44/1/1 39/1/1 38/1/1
f 44/1/1 40/1/1 39/1/1
f 44/2/1 41/2/1 40/2/1
f 45/1/1 42/1/1 41/1/1
f 45/2/1 41/2/1 44/2/1
f 46/2/1 43/2/1 42/2/1
f 46/1/1 42/1/1 45/1/1
f 47/2/1 43/2/1 46/2/1
f 49/1/1 28/1/1 37/1/1
f 49/1/1 37/1/1 36/1/1
f 50/1/1 28/1/1 49/1/1
f 51/1/1 48/1/1 47/1/1
f 51/1/1 47/1/1 46/1/1
f 51/1/1 45/1/1 44/1/1
f 51/1/1 46/1/1 45/1/1
f 51/1/1 44/1/1 38/1/1
f 52/1/1 48/1/1 51/1/1
f 53/2/1 50/2/1 49/2/1
f 53/1/1 49/1/1 36/1/1
f 54/2/1 50/2/1 53/2/1
f 55/2/1 52/2/1 51/2/1
f 55/1/1 51/1/1 38/1/1
f 56/1/1 48/1/1 52/1/1
f 56/2/1 52/2/1 55/2/1
f 57/1/1 48/1/1 56/1/1
f 58/1/1 48/1/1 57/1/1
f 59/1/1 48/1/1 58/1/1
f 60/1/1 54/1/1 53/1/1
f 60/1/1 53/1/1 36/1/1
f 61/1/1 54/1/1 60/1/1
f 62/1/1 54/1/1 61/1/1
f 63/1/1 54/1/1 62/1/1
f 64/2/1 59/2/1 58/2/1
f 65/1/1 48/1/1 59/1/1
f 65/2/1 59/2/1 64/2/1
f 66/1/1 62/1/1 61/1/1
f 67/1/1 62/1/1 66/1/1
f 68/1/1 55/1/1 38/1/1
f 68/1/1 38/1/1 29/1/1
f 68/1/1 56/1/1 55/1/1
f 68/1/1 57/1/1 56/1/1
f 69/1/1 57/1/1 68/1/1
f 70/1/1 48/1/1 65/1/1
f 70/1/1 65/1/1 64/1/1
f 71/1/1 48/1/1 70/1/1
f 72/2/1 69/2/1 68/2/1
f 72/1/1 68/1/1 29/1/1
f 73/1/1 57/1/1 69/1/1
f 73/2/1 69/2/1 72/2/1
f 74/2/1 71/2/1 70/2/1
f 74/1/1 70/1/1 64/1/1
f 75/2/1 71/2/1 74/2/1
f 76/1/1 74/1/1 64/1/1
f 76/1/1 75/1/1 74/1/1
f 77/1/1 75/1/1 76/1/1
f 78/1/1 57/1/1 73/1/1
f 78/1/1 73/1/1 72/1/1
f 79/1/1 57/1/1 78/1/1
f 80/2/1 77/2/1 76/2/1
f 80/1/1 76/1/1 64/1/1
f 81/1/1 75/1/1 77/1/1
f 81/2/1 77/2/1 80/2/1
f 82/2/1 79/2/1 78/2/1
f 82/1/1 78/1/1 72/1/1
f 83/1/1 57/1/1 79/1/1
f 83/2/1 79/2/1 82/2/1
f 84/1/1 80/1/1 64/1/1
f 84/1/1 81/1/1 80/1/1
f 85/1/1 81/1/1 84/1/1
f 86/1/1 75/1/1 81/1/1
f 86/1/1 81/1/1 85/1/1
f 87/1/1 75/1/1 86/1/1
f 88/1/1 86/1/1 85/1/1
f 89/1/1 86/1/1 88/1/1
f 90/1/1 72/1/1 29/1/1
f 90/1/1 82/1/1 72/1/1
f 90/1/1 83/1/1 82/1/1
f 91/1/1 83/1/1 90/1/1
f 92/1/1 57/1/1 83/1/1
f 92/1/1 83/1/1 91/1/1
f 93/1/1 57/1/1 92/1/1
f 94/1/1 90/1/1 29/1/1
f 95/2/1 91/2/1 90/2/1
f 95/1/1 90/1/1 94/1/1
f 96/1/1 92/1/1 91/1/1
f 96/2/1 91/2/1 95/2/1
f 97/2/1 93/2/1 92/2/1
f 97/1/1 92/1/1 96/1/1
f 98/2/1 93/2/1 97/2/1
f 99/1/1 96/1/1 95/1/1
f 99/1/1 97/1/1 96/1/1
f 100/1/1 97/1/1 99/1/1
f 101/1/2 102/1/2 105/1/2
f 102/2/2 103/2/2 105/2/2
f 103/1/2 104/1/2 106/1/2
f 105/2/2 103/2/2 106/2/2
f 105/1/2 106/1/2 107/1/2
f 106/1/2 104/1/2 107/1/2
f 107/1/2 104/1/2 108/1/2
f 105/1/2 107/1/2 109/1/2
f 107/2/2 108/2/2 109/2/2
f 108/1/2 104/1/2 110/1/2
f 109/2/2 108/2/2 110/2/2
f 101/1/2 105/1/2 112/1/2
f 105/1/2 109/1/2 112/1/2
f 109/1/2 110/1/2 112/1/2
f 112/1/2 110/1/2 113/1/2
f 113/1/2 110/1/2 114/1/2
f 111/1/2 112/1/2 116/1/2
f 112/1/2 113/1/2 116/1/2
f 116/1/2 113/1/2 117/1/2
f 117/1/2 113/1/2 118/1/2
f 113/2/2 114/2/2 119/2/2
f 118/1/2 113/1/2 119/1/2
f 114/1/2 110/1/2 120/1/2
f 119/2/2 114/2/2 120/2/2
f 115/1/2 116/1/2 122/1/2
f 116/1/2 117/1/2 122/1/2
f 117/2/2 118/2/2 123/2/2
f 122/1/2 117/1/2 123/1/2
f 118/1/2 119/1/2 124/1/2
f 123/2/2 118/2/2 124/2/2
f 119/1/2 120/1/2 124/1/2
f 122/1/2 123/1/2 125/1/2
f 121/1/2 122/1/2 125/1/2
f 123/1/2 124/1/2 125/1/2
f 125/1/2 124/1/2 126/1/2
f 124/1/2 120/1/2 127/1/2
f 126/1/2 124/1/2 127/1/2
f 120/1/2 110/1/2 127/1/2
f 110/1/2 104/1/2 128/1/2
f 127/1/2 110/1/2 128/1/2
f 125/2/2 126/2/2 129/2/2
f 121/1/2 125/1/2 129/1/2
f 126/1/2 127/1/2 130/1/2
f 129/2/2 126/2/2 130/2/2
f 130/1/2 127/1/2 131/1/2
f 131/1/2 127/1/2 132/1/2
f 127/2/2 128/2/2 133/2/2
f 132/1/2 127/1/2 133/1/2
f 128/1/2 104/1/2 134/1/2
f 133/2/2 128/2/2 134/2/2
f 132/1/2 133/1/2 135/1/2
f 134/1/2 104/1/2 135/1/2
f 133/1/2 134/1/2 135/1/2
f 132/1/2 135/1/2 137/1/2
f 135/1/2 136/1/2 137/1/2
f 137/1/2 136/1/2 138/1/2
f 138/1/2 136/1/2 139/1/2
f 139/1/2 136/1/2 140/1/2
f 140/1/2 136/1/2 141/1/2
f 121/1/2 129/1/2 143/1/2
f 130/1/2 131/1/2 143/1/2
f 129/1/2 130/1/2 143/1/2
f 143/1/2 131/1/2 144/1/2
f 132/1/2 137/1/2 145/1/2
f 137/2/2 138/2/2 145/2/2
f 138/1/2 139/1/2 146/1/2
f 145/2/2 138/2/2 146/2/2
f 139/2/2 140/2/2 147/2/2
f 146/1/2 139/1/2 147/1/2
f 140/1/2 141/1/2 148/1/2
f 147/2/2 140/2/2 148/2/2
f 141/2/2 142/2/2 149/2/2
f 148/1/2 141/1/2 149/1/2
f 149/2/2 142/2/2 150/2/2
f 143/2/2 144/2/2 152/2/2
f 121/1/2 143/1/2 152/1/2
f 144/1/2 131/1/2 153/1/2
f 152/2/2 144/2/2 153/2/2
f 147/1/2 148/1/2 154/1/2
f 146/1/2 147/1/2 154/1/2
f 145/1/2 146/1/2 154/1/2
f 148/1/2 149/1/2 154/1/2
f 149/1/2 150/1/2 154/1/2
f 150/1/2 151/1/2 154/1/2
f 154/1/2 151/1/2 155/1/2
f 153/1/2 131/1/2 156/1/2
f 152/1/2 153/1/2 156/1/2
f 156/1/2 131/1/2 157/1/2
f 154/2/2 155/2/2 158/2/2
f 145/1/2 154/1/2 158/1/2
f 155/1/2 151/1/2 159/1/2
f 158/2/2 155/2/2 159/2/2
f 159/1/2 151/1/2 160/1/2
f 160/1/2 151/1/2 161/1/2
f 161/1/2 151/1/2 162/1/2
f 121/1/2 152/1/2 163/1/2
f 152/1/2 156/1/2 163/1/2
f 163/1/2 156/1/2 164/1/2
f 156/2/2 157/2/2 165/2/2
f 164/1/2 156/1/2 165/1/2
f 165/2/2 157/2/2 166/2/2
f 161/2/2 162/2/2 167/2/2
f 162/1/2 151/1/2 168/1/2
f 167/2/2 162/2/2 168/2/2
f 164/1/2 165/1/2 169/1/2
f 169/1/2 165/1/2 170/1/2
f 145/1/2 158/1/2 171/1/2
f 132/1/2 145/1/2 171/1/2
f 158/1/2 159/1/2 171/1/2
f 159/1/2 160/1/2 171/1/2
f 171/1/2 160/1/2 172/1/2
f 132/1/2 171/1/2 173/1/2
f 171/2/2 172/2/2 173/2/2
f 172/1/2 160/1/2 174/1/2
f 173/2/2 172/2/2 174/2/2
f 168/1/2 151/1/2 175/1/2
f 167/1/2 168/1/2 175/1/2
f 175/1/2 151/1/2 176/1/2
f 167/1/2 175/1/2 177/1/2
f 175/2/2 176/2/2 177/2/2
f 177/2/2 176/2/2 178/2/2
f 174/1/2 160/1/2 179/1/2
f 173/1/2 174/1/2 179/1/2
f 179/1/2 160/1/2 180/1/2
f 177/1/2 178/1/2 181/1/2
f 167/1/2 177/1/2 181/1/2
f 181/1/2 178/1/2 182/1/2
f 179/2/2 180/2/2 183/2/2
f 173/1/2 179/1/2 183/1/2
f 180/1/2 160/1/2 184/1/2
f 183/2/2 180/2/2 184/2/2
f 181/2/2 182/2/2 185/2/2
f 182/1/2 178/1/2 186/1/2
f 185/2/2 182/2/2 186/2/2
f 186/1/2 178/1/2 187/1/2
f 187/1/2 178/1/2 188/1/2
f 132/1/2 173/1/2 189/1/2
f 173/1/2 183/1/2 189/1/2
f 183/1/2 184/1/2 189/1/2
f 189/1/2 184/1/2 190/1/2
f 186/1/2 187/1/2 191/1/2
f 191/1/2 187/1/2 192/1/2
f 189/2/2 190/2/2 193/2/2
f 190/1/2 184/1/2 194/1/2
f 193/2/2 190/2/2 194/2/2
f 193/1/2 194/1/2 195/1/2
f 194/1/2 184/1/2 196/1/2
f 195/1/2 194/1/2 196/1/2
f 184/1/2 160/1/2 197/1/2
f 196/1/2 184/1/2 197/1/2
f 197/1/2 160/1/2 198/1/2
f 196/1/2 197/1/2 199/1/2
f 199/1/2 197/1/2 200/1/2
f 205/1/3 202/1/3 201/1/3
f 205/2/3 203/2/3 202/2/3
f 206/1/3 204/1/3 203/1/3
f 206/2/3 203/2/3 205/2/3
f 207/1/3 205/1/3 201/1/3
f 207/1/3 206/1/3 205/1/3
f 208/1/3 204/1/3 206/1/3
f 208/1/3 206/1/3 207/1/3
f 213/1/3 210/1/3 209/1/3
f 214/1/3 210/1/3 213/1/3
f 215/1/3 212/1/3 211/1/3
f 216/1/3 212/1/3 215/1/3
f 219/1/3 218/1/3 217/1/3
f 220/1/3 218/1/3 219/1/3
f 225/1/3 224/1/3 223/1/3
f 226/1/3 224/1/3 225/1/3
f 227/1/3 222/1/3 221/1/3
f 228/1/3 222/1/3 227/1/3
f 229/1/3 225/1/3 223/1/3
f 230/2/3 226/2/3 225/2/3
f 230/1/3 225/1/3 229/1/3
f 231/1/3 224/1/3 226/1/3
f 231/2/3 226/2/3 230/2/3
f 232/1/3 224/1/3 231/1/3
f 235/1/3 234/1/3 233/1/3
f 236/1/3 234/1/3 235/1/3
f 240/1/3 239/1/3 238/1/3
f 241/1/3 239/1/3 240/1/3
f 242/2/3 238/2/3 237/2/3
f 243/1/3 240/1/3 238/1/3
f 243/2/3 238/2/3 242/2/3
f 244/2/3 241/2/3 240/2/3
f 244/1/3 240/1/3 243/1/3
f 245/2/3 241/2/3 244/2/3
f 248/1/3 247/1/3 246/1/3
f 249/1/3 247/1/3 248/1/3
f 250/1/3 247/1/3 249/1/3
f 251/1/4 252/1/4 253/1/4
f 253/1/4 252/1/4 254/1/4
f 254/1/4 252/1/4 255/1/4
f 256/1/4 257/1/4 260/1/4
f 257/2/4 258/2/4 260/2/4
f 258/1/4 259/1/4 261/1/4
f 260/2/4 258/2/4 261/2/4
f 261/1/4 259/1/4 262/1/4
f 256/1/4 260/1/4 263/1/4
f 260/1/4 261/1/4 263/1/4
f 261/2/4 262/2/4 264/2/4
f 263/1/4 261/1/4 264/1/4
f 264/2/4 262/2/4 265/2/4
f 266/1/4 267/1/4 268/1/4
f 268/1/4 267/1/4 269/1/4
f 269/1/4 267/1/4 270/1/4
f 273/1/4 274/1/4 276/1/4
f 274/2/4 275/2/4 276/2/4
f 276/2/4 275/2/4 277/2/4
f 271/1/4 272/1/4 278/1/4
f 278/1/4 272/1/4 279/1/4
f 273/1/4 276/1/4 280/1/4
f 276/1/4 277/1/4 280/1/4
f 280/1/4 277/1/4 281/1/4
f 282/1/4 283/1/4 284/1/4
f 284/1/4 283/1/4 285/1/4
f 286/2/4 287/2/4 290/2/4
f 290/2/4 287/2/4 291/2/4
f 288/1/4 289/1/4 292/1/4
f 292/1/4 289/1/4 293/1/4
f 294/1/4 295/1/4 298/1/4
f 295/2/4 296/2/4 298/2/4
f 296/1/4 297/1/4 299/1/4
f 298/2/4 296/2/4 299/2/4
f 299/1/4 297/1/4 300/1/4
f 294/1/4 298/1/4 301/1/4
f 298/1/4 299/1/4 301/1/4
f 299/2/4 300/2/4 302/2/4
f 301/1/4 299/1/4 302/1/4
f 300/1/4 297/1/4 303/1/4
f 302/2/4 300/2/4 303/2/4
f 303/1/4 297/1/4 304/1/4
f 307/1/5 306/1/5 305/1/5
f 308/1/5 306/1/5 307/1/5
f 309/1/5 307/1/5 305/1/5
f 309/2/5 308/2/5 307/2/5
f 310/2/5 308/2/5 309/2/5
f 311/1/5 309/1/5 305/1/5
f 311/1/5 310/1/5 309/1/5
f 312/1/5 310/1/5 311/1/5
f 315/1/5 314/1/5 313/1/5
f 316/1/5 314/1/5 315/1/5
f 319/1/5 318/1/5 317/1/5
f 320/1/5 318/1/5 319/1/5
f 323/1/5 322/1/5 321/1/5
f 324/1/5 322/1/5 323/1/5
f 327/1/5 326/1/5 325/1/5
f 328/1/5 326/1/5 327/1/5
f 331/2/5 330/2/5 329/2/5
f 332/2/5 330/2/5 331/2/5
f 335/1/5 334/1/5 333/1/5
f 336/1/5 334/1/5 335/1/5
f 337/1/6 338/1/6 339/1/6
f 339/1/6 338/1/6 340/1/6
f 341/1/6 342/1/6 343/1/6
f 343/1/6 342/1/6 344/1/6
f 345/1/6 346/1/6 347/1/6
f 347/1/6 346/1/6 348/1/6
f 349/1/6 350/1/6 352/1/6
f 350/2/6 351/2/6 353/2/6
f 352/1/6 350/1/6 353/1/6
f 353/2/6 351/2/6 354/2/6
f 355/1/6 356/1/6 357/1/6
f 357/1/6 356/1/6 358/1/6
f 359/1/6 360/1/6 362/1/6
f 360/2/6 361/2/6 363/2/6
f 362/1/6 360/1/6 363/1/6
f 363/2/6 361/2/6 364/2/6
f 365/1/6 366/1/6 367/1/6
f 367/1/6 366/1/6 368/1/6
f 369/1/6 370/1/6 371/1/6
f 371/1/6 370/1/6 372/1/6
f 373/1/6 374/1/6 375/1/6
f 375/1/6 374/1/6 376/1/6
f 377/2/6 378/2/6 380/2/6
f 378/1/6 379/1/6 381/1/6
f 380/2/6 378/2/6 381/2/6
f 381/1/6 379/1/6 382/1/6
f 383/1/6 384/1/6 385/1/6
f 385/1/6 384/1/6 386/1/6
